<?xml version="1.0" encoding="utf-8"?>
<svg version="1.1" xmlns:xlink="http://www.w3.org/1999/xlink" width="15px" height="26px" xmlns="http://www.w3.org/2000/svg">
  <g transform="matrix(1 0 0 1 -47 -497 )">
    <path d="M 14.7422680412371 1.56312625250501  C 14.914089347079 1.73680694722779  15 1.93653974615898  15 2.1623246492986  C 15 2.38810955243821  14.914089347079 2.5878423513694  14.7422680412371 2.76152304609218  L 4.61340206185567 13  L 14.7422680412371 23.2384769539078  C 14.914089347079 23.4121576486306  15 23.6118904475618  15 23.8376753507014  C 15 24.063460253841  14.914089347079 24.2631930527722  14.7422680412371 24.436873747495  L 13.4536082474227 25.7394789579158  C 13.2817869415808 25.9131596526386  13.0841924398625 26  12.860824742268 26  C 12.6374570446735 26  12.4398625429553 25.9131596526386  12.2680412371134 25.7394789579158  L 0.257731958762887 13.5991983967936  C 0.0859106529209623 13.4255177020708  0 13.2257849031396  0 13  C 0 12.7742150968604  0.0859106529209623 12.5744822979292  0.257731958762887 12.4008016032064  L 12.2680412371134 0.260521042084169  C 12.4398625429553 0.0868403473613886  12.6374570446735 0  12.860824742268 0  C 13.0841924398625 0  13.2817869415808 0.0868403473613886  13.4536082474227 0.260521042084169  L 14.7422680412371 1.56312625250501  Z " fill-rule="nonzero" fill="#333333" stroke="none" transform="matrix(1 0 0 1 47 497 )" />
  </g>
</svg>