<?xml version="1.0" encoding="utf-8"?>
<svg version="1.1" xmlns:xlink="http://www.w3.org/1999/xlink" width="340px" height="220px" xmlns="http://www.w3.org/2000/svg">
  <g transform="matrix(1 0 0 1 -825 -252 )">
    <path d="M 825 252  L 1165 252  L 1165 472  L 825 472  L 825 252  " fill-rule="nonzero" fill="#cccccc" stroke="none" />
    <path d="M 840 267  L 1150 267  L 1150 457  L 840 457  L 840 267  " fill-rule="nonzero" fill="#ffffff" stroke="none" />
    <path d="M 1018.3 318  C 1009.06 318  1001.8 310.74  1001.8 301.5  C 1001.8 292.26  1009.06 285  1018.3 285  C 1027.54 285  1034.8 292.26  1034.8 301.5  C 1034.8 310.74  1027.54 318  1018.3 318  " fill-rule="nonzero" fill="#cccccc" stroke="none" />
    <path d="M 846 452  L 846 353.55  L 920.75 308.8  L 1025.4 382.505882352941  L 1085.2 335.65  L 1145 382.505882352941  L 1145 452  L 846 452  " fill-rule="nonzero" fill="#169bd5" stroke="none" />
  </g>
</svg>