<?xml version="1.0" encoding="utf-8"?>
<svg version="1.1" xmlns:xlink="http://www.w3.org/1999/xlink" width="50px" height="70px" xmlns="http://www.w3.org/2000/svg">
  <g transform="matrix(1 0 0 1 -55 -277 )">
    <path d="M 55 277  L 105 277  L 105 347  L 55 347  L 55 277  " fill-rule="nonzero" fill="#cccccc" stroke="none" />
    <path d="M 59 281  L 101 281  L 101 343  L 59 343  L 59 281  " fill-rule="nonzero" fill="#ffffff" stroke="none" />
    <path d="M 84.75 295  C 82.65 295  81 293.35  81 291.25  C 81 289.15  82.65 287.5  84.75 287.5  C 86.85 287.5  88.5 289.15  88.5 291.25  C 88.5 293.35  86.85 295  84.75 295  " fill-rule="nonzero" fill="#cccccc" stroke="none" />
    <path d="M 61 342  L 61 309.55  L 70.75 294.8  L 84.4 306.6  L 92.2 303.65  L 100 306.6  L 100 342  L 61 342  " fill-rule="nonzero" fill="#169bd5" stroke="none" />
  </g>
</svg>