<?xml version="1.0" encoding="utf-8"?>
<svg version="1.1" xmlns:xlink="http://www.w3.org/1999/xlink" width="20px" height="34px" xmlns="http://www.w3.org/2000/svg">
  <g transform="matrix(1 0 0 1 -50 -42 )">
    <path d="M 19.6563573883161 2.0440881763527  C 19.8854524627721 2.27120908483634  20 2.53239812959251  20 2.82765531062124  C 20 3.12291249164997  19.8854524627721 3.38410153640614  19.6563573883161 3.61122244488978  L 6.15120274914089 17  L 19.6563573883161 30.3887775551102  C 19.8854524627721 30.6158984635939  20 30.87708750835  20 31.1723446893788  C 20 31.4676018704075  19.8854524627721 31.7287909151637  19.6563573883161 31.9559118236473  L 17.9381443298969 33.6593186372746  C 17.709049255441 33.8864395457582  17.4455899198167 34  17.1477663230241 34  C 16.8499427262314 34  16.5864833906071 33.8864395457582  16.3573883161512 33.6593186372746  L 0.343642611683849 17.7835671342685  C 0.11454753722795 17.5564462257849  0 17.2952571810287  0 17  C 0 16.7047428189713  0.11454753722795 16.4435537742151  0.343642611683849 16.2164328657315  L 16.3573883161512 0.340681362725451  C 16.5864833906071 0.113560454241816  16.8499427262314 0  17.1477663230241 0  C 17.4455899198167 0  17.709049255441 0.113560454241816  17.9381443298969 0.340681362725451  L 19.6563573883161 2.0440881763527  Z " fill-rule="nonzero" fill="#333333" stroke="none" transform="matrix(1 0 0 1 50 42 )" />
  </g>
</svg>