<?xml version="1.0" encoding="utf-8"?>
<svg version="1.1" xmlns:xlink="http://www.w3.org/1999/xlink" width="160px" height="90px" xmlns="http://www.w3.org/2000/svg">
  <g transform="matrix(1 0 0 1 -335 -320 )">
    <path d="M 335 320  L 495 320  L 495 410  L 335 410  L 335 320  " fill-rule="nonzero" fill="#cccccc" stroke="none" />
    <path d="M 341 326  L 489 326  L 489 404  L 341 404  L 341 326  " fill-rule="nonzero" fill="#ffffff" stroke="none" />
    <path d="M 424.95 347  C 421.17 347  418.2 344.03  418.2 340.25  C 418.2 336.47  421.17 333.5  424.95 333.5  C 428.73 333.5  431.7 336.47  431.7 340.25  C 431.7 344.03  428.73 347  424.95 347  " fill-rule="nonzero" fill="#cccccc" stroke="none" />
    <path d="M 344 402  L 344 361.85  L 379.75 343.6  L 429.8 377.3625  L 458.4 354.55  L 487 377.3625  L 487 402  L 344 402  " fill-rule="nonzero" fill="#169bd5" stroke="none" />
  </g>
</svg>