<?xml version="1.0" encoding="utf-8"?>
<svg version="1.1" xmlns:xlink="http://www.w3.org/1999/xlink" width="60px" height="84px" xmlns="http://www.w3.org/2000/svg">
  <defs>
    <mask fill="white" id="clip673">
      <path d="M 9 92  C 6.225 92  4 89.775  4 87  L 4 13  C 4 10.225  6.225 8  9 8  L 59 8  C 61.775 8  64 10.225  64 13  L 64 87  C 64 89.775  61.775 92  59 92  " fill-rule="evenodd" />
    </mask>
  </defs>
  <g transform="matrix(1 0 0 1 -4 -8 )">
    <path d="M 4 8  L 64 8  L 64 92  L 4 92  L 4 8  " fill-rule="nonzero" fill="#cccccc" stroke="none" mask="url(#clip673)" />
    <path d="M 8 12  L 60 12  L 60 88  L 8 88  L 8 12  " fill-rule="nonzero" fill="#ffffff" stroke="none" mask="url(#clip673)" />
    <path d="M 39.7 29.6  C 37.18 29.6  35.2 27.62  35.2 25.1  C 35.2 22.58  37.18 20.6  39.7 20.6  C 42.22 20.6  44.2 22.58  44.2 25.1  C 44.2 27.62  42.22 29.6  39.7 29.6  " fill-rule="nonzero" fill="#cccccc" stroke="none" mask="url(#clip673)" />
    <path d="M 10 87  L 10 46.85  L 22.25 28.6  L 39.4 43.2  L 49.2 39.55  L 59 43.2  L 59 87  L 10 87  " fill-rule="nonzero" fill="#169bd5" stroke="none" mask="url(#clip673)" />
  </g>
</svg>