<?xml version="1.0" encoding="utf-8"?>
<svg version="1.1" xmlns:xlink="http://www.w3.org/1999/xlink" width="100px" height="100px" xmlns="http://www.w3.org/2000/svg">
  <g transform="matrix(1 0 0 1 -251 -65 )">
    <path d="M 301 65  C 329 65  351 87  351 115  C 351 143  329 165  301 165  C 273 165  251 143  251 115  C 251 87  273 65  301 65  Z " fill-rule="nonzero" fill="#ffffff" stroke="none" />
    <path d="M 301 65.5  C 328.72 65.5  350.5 87.28  350.5 115  C 350.5 142.72  328.72 164.5  301 164.5  C 273.28 164.5  251.5 142.72  251.5 115  C 251.5 87.28  273.28 65.5  301 65.5  Z " stroke-width="1" stroke="#797979" fill="none" />
  </g>
</svg>