<?xml version="1.0" encoding="utf-8"?>
<svg version="1.1" xmlns:xlink="http://www.w3.org/1999/xlink" width="185px" height="224px" xmlns="http://www.w3.org/2000/svg">
  <g transform="matrix(1 0 0 1 -329 -39 )">
    <path d="M 329 39  L 514 39  L 514 263  L 329 263  L 329 39  " fill-rule="nonzero" fill="#cccccc" stroke="none" />
    <path d="M 342 52  L 501 52  L 501 250  L 342 250  L 342 52  " fill-rule="nonzero" fill="#ffffff" stroke="none" />
    <path d="M 439.075 100.35  C 431.305 100.35  425.2 94.245  425.2 86.475  C 425.2 78.705  431.305 72.6  439.075 72.6  C 446.845 72.6  452.95 78.705  452.95 86.475  C 452.95 94.245  446.845 100.35  439.075 100.35  " fill-rule="nonzero" fill="#cccccc" stroke="none" />
    <path d="M 347 246  L 347 142.05  L 384.5 94.8  L 437 132.6  L 467 123.15  L 497 132.6  L 497 246  L 347 246  " fill-rule="nonzero" fill="#169bd5" stroke="none" />
  </g>
</svg>