<?xml version="1.0" encoding="utf-8"?>
<svg version="1.1" xmlns:xlink="http://www.w3.org/1999/xlink" width="318px" height="196px" xmlns="http://www.w3.org/2000/svg">
  <g transform="matrix(1 0 0 1 -371 -392 )">
    <path d="M 371 392  L 689 392  L 689 588  L 371 588  L 371 392  " fill-rule="nonzero" fill="#cccccc" stroke="none" />
    <path d="M 385 406  L 675 406  L 675 574  L 385 574  L 385 406  " fill-rule="nonzero" fill="#ffffff" stroke="none" />
    <path d="M 551.06 450.8  C 542.828 450.8  536.36 444.332  536.36 436.1  C 536.36 427.868  542.828 421.4  551.06 421.4  C 559.292 421.4  565.76 427.868  565.76 436.1  C 565.76 444.332  559.292 450.8  551.06 450.8  " fill-rule="nonzero" fill="#cccccc" stroke="none" />
    <path d="M 390 569  L 390 482.1  L 460 442.6  L 558 510.569811320755  L 614 466.3  L 670 510.569811320755  L 670 569  L 390 569  " fill-rule="nonzero" fill="#169bd5" stroke="none" />
  </g>
</svg>