<?xml version="1.0" encoding="utf-8"?>
<svg version="1.1" xmlns:xlink="http://www.w3.org/1999/xlink" width="100px" height="100px" xmlns="http://www.w3.org/2000/svg">
  <g transform="matrix(1 0 0 1 -266 -54 )">
    <path d="M 316 54  C 344 54  366 76  366 104  C 366 132  344 154  316 154  C 288 154  266 132  266 104  C 266 76  288 54  316 54  Z " fill-rule="nonzero" fill="#ffffff" stroke="none" />
    <path d="M 316 54.5  C 343.72 54.5  365.5 76.28  365.5 104  C 365.5 131.72  343.72 153.5  316 153.5  C 288.28 153.5  266.5 131.72  266.5 104  C 266.5 76.28  288.28 54.5  316 54.5  Z " stroke-width="1" stroke="#797979" fill="none" />
  </g>
</svg>