<?xml version="1.0" encoding="utf-8"?>
<svg version="1.1" xmlns:xlink="http://www.w3.org/1999/xlink" width="70px" height="98px" xmlns="http://www.w3.org/2000/svg">
  <g transform="matrix(1 0 0 1 -235 -334 )">
    <path d="M 235 334  L 305 334  L 305 432  L 235 432  L 235 334  " fill-rule="nonzero" fill="#cccccc" stroke="none" />
    <path d="M 240 339  L 300 339  L 300 427  L 240 427  L 240 339  " fill-rule="nonzero" fill="#ffffff" stroke="none" />
    <path d="M 276.65 359.2  C 273.71 359.2  271.4 356.89  271.4 353.95  C 271.4 351.01  273.71 348.7  276.65 348.7  C 279.59 348.7  281.9 351.01  281.9 353.95  C 281.9 356.89  279.59 359.2  276.65 359.2  " fill-rule="nonzero" fill="#cccccc" stroke="none" />
    <path d="M 242 425  L 242 378.8  L 256 357.8  L 275.6 374.6  L 286.8 370.4  L 298 374.6  L 298 425  L 242 425  " fill-rule="nonzero" fill="#169bd5" stroke="none" />
  </g>
</svg>