<?xml version="1.0" encoding="utf-8"?>
<svg version="1.1" xmlns:xlink="http://www.w3.org/1999/xlink" width="120px" height="146px" xmlns="http://www.w3.org/2000/svg">
  <g transform="matrix(1 0 0 1 -108 -165 )">
    <path d="M 108 165  L 228 165  L 228 311  L 108 311  L 108 165  " fill-rule="nonzero" fill="#cccccc" stroke="none" />
    <path d="M 116 173  L 220 173  L 220 303  L 116 303  L 116 173  " fill-rule="nonzero" fill="#ffffff" stroke="none" />
    <path d="M 179.4 204.9  C 174.36 204.9  170.4 200.94  170.4 195.9  C 170.4 190.86  174.36 186.9  179.4 186.9  C 184.44 186.9  188.4 190.86  188.4 195.9  C 188.4 200.94  184.44 204.9  179.4 204.9  " fill-rule="nonzero" fill="#cccccc" stroke="none" />
    <path d="M 119 300  L 119 231.8  L 143.5 200.8  L 177.8 225.6  L 197.4 219.4  L 217 225.6  L 217 300  L 119 300  " fill-rule="nonzero" fill="#169bd5" stroke="none" />
  </g>
</svg>