<?xml version="1.0" encoding="utf-8"?>
<svg version="1.1" xmlns:xlink="http://www.w3.org/1999/xlink" width="185px" height="224px" xmlns="http://www.w3.org/2000/svg">
  <g transform="matrix(1 0 0 1 -488 -102 )">
    <path d="M 488 102  L 673 102  L 673 326  L 488 326  L 488 102  " fill-rule="nonzero" fill="#cccccc" stroke="none" />
    <path d="M 501 115  L 660 115  L 660 313  L 501 313  L 501 115  " fill-rule="nonzero" fill="#ffffff" stroke="none" />
    <path d="M 598.075 163.35  C 590.305 163.35  584.2 157.245  584.2 149.475  C 584.2 141.705  590.305 135.6  598.075 135.6  C 605.845 135.6  611.95 141.705  611.95 149.475  C 611.95 157.245  605.845 163.35  598.075 163.35  " fill-rule="nonzero" fill="#cccccc" stroke="none" />
    <path d="M 506 309  L 506 205.05  L 543.5 157.8  L 596 195.6  L 626 186.15  L 656 195.6  L 656 309  L 506 309  " fill-rule="nonzero" fill="#169bd5" stroke="none" />
  </g>
</svg>