<?xml version="1.0" encoding="utf-8"?>
<svg version="1.1" xmlns:xlink="http://www.w3.org/1999/xlink" width="150px" height="210px" xmlns="http://www.w3.org/2000/svg">
  <g transform="matrix(1 0 0 1 -91 -183 )">
    <path d="M 91 183  L 241 183  L 241 393  L 91 393  L 91 183  " fill-rule="nonzero" fill="#cccccc" stroke="none" />
    <path d="M 102 194  L 230 194  L 230 382  L 102 382  L 102 194  " fill-rule="nonzero" fill="#ffffff" stroke="none" />
    <path d="M 180.25 237  C 173.95 237  169 232.05  169 225.75  C 169 219.45  173.95 214.5  180.25 214.5  C 186.55 214.5  191.5 219.45  191.5 225.75  C 191.5 232.05  186.55 237  180.25 237  " fill-rule="nonzero" fill="#cccccc" stroke="none" />
    <path d="M 106 378  L 106 279  L 136 234  L 178 270  L 202 261  L 226 270  L 226 378  L 106 378  " fill-rule="nonzero" fill="#169bd5" stroke="none" />
  </g>
</svg>