<?xml version="1.0" encoding="utf-8"?>
<svg version="1.1" xmlns:xlink="http://www.w3.org/1999/xlink" width="480px" height="270px" xmlns="http://www.w3.org/2000/svg">
  <defs>
    <mask fill="white" id="clip197">
      <path d="M -345 425  C -347.775 425  -350 422.775  -350 420  L -350 160  C -350 157.225  -347.775 155  -345 155  L 125 155  C 127.775 155  130 157.225  130 160  L 130 420  C 130 422.775  127.775 425  125 425  " fill-rule="evenodd" />
    </mask>
  </defs>
  <g transform="matrix(1 0 0 1 350 -155 )">
    <path d="M -350 155  L 130 155  L 130 425  L -350 425  L -350 155  " fill-rule="nonzero" fill="#cccccc" stroke="none" mask="url(#clip197)" />
    <path d="M -331 174  L 111 174  L 111 406  L -331 406  L -331 174  " fill-rule="nonzero" fill="#ffffff" stroke="none" mask="url(#clip197)" />
    <path d="M -80.15 236  C -91.49 236  -100.4 227.09  -100.4 215.75  C -100.4 204.41  -91.49 195.5  -80.15 195.5  C -68.81 195.5  -59.9 204.41  -59.9 215.75  C -59.9 227.09  -68.81 236  -80.15 236  " fill-rule="nonzero" fill="#cccccc" stroke="none" mask="url(#clip197)" />
    <path d="M -324 399  L -324 279.1  L -217 224.6  L -67.2 325.425  L 18.4 257.3  L 104 325.425  L 104 399  L -324 399  " fill-rule="nonzero" fill="#169bd5" stroke="none" mask="url(#clip197)" />
  </g>
</svg>