<?xml version="1.0" encoding="utf-8"?>
<svg version="1.1" xmlns:xlink="http://www.w3.org/1999/xlink" width="920px" height="670px" xmlns="http://www.w3.org/2000/svg">
  <g transform="matrix(1 0 0 1 -170 -110 )">
    <path d="M 170 110  L 1090 110  L 1090 780  L 170 780  L 170 110  " fill-rule="nonzero" fill="#cccccc" stroke="none" />
    <path d="M 217 157  L 1043 157  L 1043 733  L 217 733  L 217 157  " fill-rule="nonzero" fill="#ffffff" stroke="none" />
    <path d="M 698.65 311  C 670.51 311  648.4 288.89  648.4 260.75  C 648.4 232.61  670.51 210.5  698.65 210.5  C 726.79 210.5  748.9 232.61  748.9 260.75  C 748.9 288.89  726.79 311  698.65 311  " fill-rule="nonzero" fill="#cccccc" stroke="none" />
    <path d="M 234 716  L 234 417.9  L 432 282.4  L 709.2 479.169565217391  L 867.6 363.7  L 1026 479.169565217391  L 1026 716  L 234 716  " fill-rule="nonzero" fill="#169bd5" stroke="none" />
  </g>
</svg>