<?xml version="1.0" encoding="utf-8"?>
<svg version="1.1" xmlns:xlink="http://www.w3.org/1999/xlink" width="198px" height="112px" xmlns="http://www.w3.org/2000/svg">
  <defs>
    <mask fill="white" id="clip195">
      <path d="M 1 113  L 1 6  C 1 3.225  3.225 1  6 1  L 194 1  C 196.775 1  199 3.225  199 6  L 199 113  " fill-rule="evenodd" />
    </mask>
  </defs>
  <g transform="matrix(1 0 0 1 -1 -1 )">
    <path d="M 1 1  L 199 1  L 199 113  L 1 113  L 1 1  " fill-rule="nonzero" fill="#cccccc" stroke="none" mask="url(#clip195)" />
    <path d="M 9 9  L 191 9  L 191 105  L 9 105  L 9 9  " fill-rule="nonzero" fill="#ffffff" stroke="none" mask="url(#clip195)" />
    <path d="M 112.36 34.6  C 107.656 34.6  103.96 30.904  103.96 26.2  C 103.96 21.496  107.656 17.8  112.36 17.8  C 117.064 17.8  120.76 21.496  120.76 26.2  C 120.76 30.904  117.064 34.6  112.36 34.6  " fill-rule="nonzero" fill="#cccccc" stroke="none" mask="url(#clip195)" />
    <path d="M 12 102  L 12 52.5  L 56 30  L 117.6 71.4545454545455  L 152.8 43.5  L 188 71.4545454545455  L 188 102  L 12 102  " fill-rule="nonzero" fill="#169bd5" stroke="none" mask="url(#clip195)" />
  </g>
</svg>