<?xml version="1.0" encoding="utf-8"?>
<svg version="1.1" xmlns:xlink="http://www.w3.org/1999/xlink" width="15px" height="26px" xmlns="http://www.w3.org/2000/svg">
  <g transform="matrix(1 0 0 1 -922 -336 )">
    <path d="M 14.7422680412371 12.4008016032064  C 14.914089347079 12.5744822979292  15 12.7742150968604  15 13  C 15 13.2257849031396  14.914089347079 13.4255177020708  14.7422680412371 13.5991983967936  L 2.7319587628866 25.7394789579158  C 2.56013745704467 25.9131596526386  2.36254295532646 26  2.13917525773196 26  C 1.91580756013746 26  1.71821305841924 25.9131596526386  1.54639175257732 25.7394789579158  L 0.257731958762887 24.436873747495  C 0.0859106529209623 24.2631930527722  0 24.063460253841  0 23.8376753507014  C 0 23.6118904475618  0.0859106529209623 23.4121576486306  0.257731958762887 23.2384769539078  L 10.3865979381443 13  L 0.257731958762887 2.76152304609218  C 0.0859106529209623 2.5878423513694  0 2.38810955243821  0 2.1623246492986  C 0 1.93653974615898  0.0859106529209623 1.73680694722779  0.257731958762887 1.56312625250501  L 1.54639175257732 0.260521042084169  C 1.71821305841924 0.0868403473613886  1.91580756013746 0  2.13917525773196 0  C 2.36254295532646 0  2.56013745704467 0.0868403473613886  2.7319587628866 0.260521042084169  L 14.7422680412371 12.4008016032064  Z " fill-rule="nonzero" fill="#333333" stroke="none" transform="matrix(1 0 0 1 922 336 )" />
  </g>
</svg>