<?xml version="1.0" encoding="utf-8"?>
<svg version="1.1" xmlns:xlink="http://www.w3.org/1999/xlink" width="270px" height="190px" xmlns="http://www.w3.org/2000/svg">
  <defs>
    <mask fill="white" id="clip667">
      <path d="M 1 191  L 1 6  C 1 3.225  3.225 1  6 1  L 266 1  C 268.775 1  271 3.225  271 6  L 271 191  " fill-rule="evenodd" />
    </mask>
  </defs>
  <g transform="matrix(1 0 0 1 -1 -1 )">
    <path d="M 1 1  L 271 1  L 271 191  L 1 191  L 1 1  " fill-rule="nonzero" fill="#cccccc" stroke="none" mask="url(#clip667)" />
    <path d="M 14 14  L 258 14  L 258 178  L 14 178  L 14 14  " fill-rule="nonzero" fill="#ffffff" stroke="none" mask="url(#clip667)" />
    <path d="M 155.65 58  C 147.67 58  141.4 51.73  141.4 43.75  C 141.4 35.77  147.67 29.5  155.65 29.5  C 163.63 29.5  169.9 35.77  169.9 43.75  C 169.9 51.73  163.63 58  155.65 58  " fill-rule="nonzero" fill="#cccccc" stroke="none" mask="url(#clip667)" />
    <path d="M 19 173  L 19 88.3  L 77.5 49.8  L 159.4 107.977777777778  L 206.2 72.9  L 253 107.977777777778  L 253 173  L 19 173  " fill-rule="nonzero" fill="#169bd5" stroke="none" mask="url(#clip667)" />
  </g>
</svg>